<?xml version="1.0" encoding="UTF-8" standalone="no"?>
<!-- Created with Inkscape (http://www.inkscape.org/) -->

<svg
   width="100"
   height="100"
   viewBox="0 0 26.458333 26.458333"
   version="1.1"
   id="svg1"
   inkscape:version="1.3.2 (091e20e, 2023-11-25)"
   sodipodi:docname="error.svg"
   xmlns:inkscape="http://www.inkscape.org/namespaces/inkscape"
   xmlns:sodipodi="http://sodipodi.sourceforge.net/DTD/sodipodi-0.dtd"
   xmlns="http://www.w3.org/2000/svg"
   xmlns:svg="http://www.w3.org/2000/svg">
  <sodipodi:namedview
     id="namedview1"
     pagecolor="#ffffff"
     bordercolor="#000000"
     borderopacity="0.25"
     inkscape:showpageshadow="2"
     inkscape:pageopacity="0.0"
     inkscape:pagecheckerboard="0"
     inkscape:deskcolor="#d1d1d1"
     inkscape:document-units="mm"
     inkscape:zoom="5.9129452"
     inkscape:cx="57.670076"
     inkscape:cy="45.747084"
     inkscape:window-width="1872"
     inkscape:window-height="924"
     inkscape:window-x="435"
     inkscape:window-y="25"
     inkscape:window-maximized="0"
     inkscape:current-layer="g1" />
  <defs
     id="defs1">
    <rect
       x="174.61064"
       y="918.11401"
       width="535.09711"
       height="111.24388"
       id="rect6" />
    <rect
       x="43.811356"
       y="629.29041"
       width="838.39008"
       height="368.41367"
       id="rect5" />
    <rect
       x="832.41577"
       y="802.54437"
       width="698.9903"
       height="137.40836"
       id="rect4" />
    <rect
       x="109.52839"
       y="643.23041"
       width="555.60767"
       height="97.579842"
       id="rect3" />
    <rect
       x="87.50386"
       y="463.56213"
       width="545.22192"
       height="121.33447"
       id="rect2" />
  </defs>
  <g
     inkscape:label="Layer 1"
     inkscape:groupmode="layer"
     id="layer1">
    <g
       id="g1">
      <text
         xml:space="preserve"
         transform="scale(0.26458333)"
         id="text2"
         style="font-style:normal;font-variant:normal;font-weight:normal;font-stretch:normal;font-size:96px;font-family:Anta;-inkscape-font-specification:Anta;text-align:center;white-space:pre;shape-inside:url(#rect3);display:inline;fill:#ffffff;fill-opacity:1;stroke-width:65.7638;stroke-linecap:round;stroke-linejoin:round"><tspan
           x="109.5293"
           y="828.30495"
           id="tspan2"><tspan
             dx="0 68.484375 67.40625 58.03125 28.125 28.125 68.484375 56.8125 28.125 65.578125 58.03125 68.484375 64.734375"
             id="tspan1">OUT  OF STOCK</tspan></tspan></text>
      <text
         xml:space="preserve"
         transform="scale(0.26458333)"
         id="text3"
         style="font-style:normal;font-variant:normal;font-weight:normal;font-stretch:normal;font-size:96px;font-family:Anta;-inkscape-font-specification:Anta;text-align:center;white-space:pre;shape-inside:url(#rect4);display:inline;fill:#ffffff;fill-opacity:1;stroke-width:65.7638;stroke-linecap:round;stroke-linejoin:round" />
      <path
         style="color:#000000;fill:#5c8326;stroke-width:0.19024;stroke-linecap:round;stroke-linejoin:round;-inkscape-stroke:none"
         d="m 13.229167,3.780131 c -5.1989873,0 -9.4492208,4.2498618 -9.4492208,9.44885 0,5.198988 4.2502335,9.449221 9.4492208,9.449221 5.198988,0 9.449221,-4.250233 9.449221,-9.449221 0,-5.1989882 -4.250233,-9.44885 -9.449221,-9.44885 z m 0,3.3098841 c 3.410034,0 6.138965,2.7289308 6.138965,6.1389659 0,3.410035 -2.728931,6.138966 -6.138965,6.138966 -3.4100344,0 -6.138965,-2.728931 -6.138965,-6.138966 0,-3.4100351 2.7289306,-6.1389659 6.138965,-6.1389659 z"
         id="path1" />
      <rect
         style="fill:#5c8326;fill-opacity:1;stroke:none;stroke-width:3.8416;stroke-linecap:round;stroke-linejoin:round;stroke-dasharray:none;stroke-opacity:1"
         id="rect1"
         width="26.157877"
         height="7.9791174"
         x="0.15022807"
         y="9.2396078"
         ry="1.4033211" />
      <path
         style="font-size:96px;font-family:Anta;-inkscape-font-specification:Anta;text-align:center;white-space:pre;fill:#ffffff;stroke-width:65.7638;stroke-linecap:round;stroke-linejoin:round"
         d="m 203.81055,489.74836 h 51.70312 v 9.84375 h -41.8125 v 46.92187 h 41.8125 v 9.89063 h -51.70312 z m 15.51562,27.04687 h 36.1875 v 9.84375 h -36.1875 z m 48.375,-27.04687 h 35.25 q 4.54688,0 8.25,2.25 3.75,2.20312 5.95313,5.90625 2.25,3.70312 2.25,8.25 v 6.65625 q 0,4.54687 -2.20313,8.20312 -2.15625,3.65625 -5.90625,5.8125 -3.75,2.15625 -8.39062,2.15625 l 19.875,27.42188 h -12.04688 l -19.875,-27.42188 h -7.64062 v -9.84375 h 19.73437 q 2.76563,0 4.6875,-1.875 1.92188,-1.92187 1.92188,-4.59375 v -6.51562 q 0,-2.71875 -1.92188,-4.64063 -1.92187,-1.92187 -4.6875,-1.92187 H 277.5918 v 56.8125 h -9.89063 z m 64.45313,0 h 35.25 q 4.54687,0 8.25,2.25 3.75,2.20312 5.95312,5.90625 2.25,3.70312 2.25,8.25 v 6.65625 q 0,4.54687 -2.20312,8.20312 -2.15625,3.65625 -5.90625,5.8125 -3.75,2.15625 -8.39063,2.15625 l 19.875,27.42188 h -12.04687 l -19.875,-27.42188 h -7.64063 v -9.84375 h 19.73438 q 2.76562,0 4.6875,-1.875 1.92187,-1.92187 1.92187,-4.59375 v -6.51562 q 0,-2.71875 -1.92187,-4.64063 -1.92188,-1.92187 -4.6875,-1.92187 h -25.35938 v 56.8125 h -9.89062 z m 64.45312,18.75 q 0,-5.20313 2.67188,-9.42188 2.71875,-4.26562 7.21875,-6.79687 4.5,-2.53125 9.98437,-2.53125 h 15.60938 q 5.48437,0 9.98437,2.53125 4.54688,2.53125 7.21875,6.79687 2.67188,4.21875 2.67188,9.42188 v 29.15625 q 0,5.15625 -2.67188,9.42187 -2.67187,4.26563 -7.21875,6.79688 -4.5,2.53125 -9.98437,2.53125 h -15.60938 q -5.48437,0 -9.98437,-2.53125 -4.5,-2.53125 -7.21875,-6.79688 -2.67188,-4.26562 -2.67188,-9.42187 z m 9.89063,29.20312 q 0,3.65625 2.90625,6.28125 2.95312,2.57813 7.07812,2.57813 h 15.60938 q 4.17187,0 7.07812,-2.57813 2.90625,-2.625 2.90625,-6.28125 v -29.25 q 0,-3.65625 -2.90625,-6.23437 -2.90625,-2.625 -7.07812,-2.625 h -15.60938 q -4.125,0 -7.07812,2.625 -2.90625,2.57812 -2.90625,6.23437 z m 58.59375,-47.95312 h 35.25 q 4.54687,0 8.25,2.25 3.75,2.20312 5.95312,5.90625 2.25,3.70312 2.25,8.25 v 6.65625 q 0,4.54687 -2.20312,8.20312 -2.15625,3.65625 -5.90625,5.8125 -3.75,2.15625 -8.39063,2.15625 l 19.875,27.42188 h -12.04687 l -19.875,-27.42188 h -7.64063 v -9.84375 h 19.73438 q 2.76562,0 4.6875,-1.875 1.92187,-1.92187 1.92187,-4.59375 v -6.51562 q 0,-2.71875 -1.92187,-4.64063 -1.92188,-1.92187 -4.6875,-1.92187 h -25.35938 v 56.8125 h -9.89062 z"
         id="text1"
         transform="matrix(0.07547555,0,0,0.06782791,-14.092244,-22.250015)"
         aria-label="ERROR" />
      <path
         d="m 8.1973587,18.84884 q 0.062314,-0.08056 0.1542081,-0.113882 0.093181,-0.03349 0.1931706,-0.01878 0.099989,0.01471 0.1849048,0.08038 l 0.241683,0.186941 q 0.084916,0.06568 0.1242752,0.158767 0.040085,0.09365 0.030368,0.191692 -0.00916,0.09732 -0.07147,0.177878 l -0.349183,0.451433 q -0.061753,0.07984 -0.1542081,0.113882 -0.092455,0.03405 -0.1931705,0.01878 -0.099989,-0.0147 -0.1849049,-0.08038 L 7.9313493,19.82861 q -0.084916,-0.06568 -0.1242752,-0.158769 -0.039359,-0.09309 -0.030368,-0.19169 0.00972,-0.09804 0.07147,-0.17788 z m -0.1966059,0.57061 q -0.043788,0.05661 -0.030228,0.132059 0.014848,0.07529 0.078716,0.124688 l 0.241683,0.186941 q 0.064594,0.04996 0.1404683,0.04485 0.076436,-0.0058 0.1202239,-0.06245 l 0.3503058,-0.452884 q 0.043788,-0.05661 0.029666,-0.131334 -0.01356,-0.07545 -0.078154,-0.125413 l -0.241683,-0.186941 q -0.063868,-0.0494 -0.1410297,-0.04413 -0.075874,0.0051 -0.1196625,0.06172 z m 1.3239843,-0.168998 0.1697938,0.09302 -0.4509873,0.823218 q -0.034386,0.06277 -0.012763,0.132156 0.021622,0.06939 0.085999,0.104655 l 0.2808438,0.153855 q 0.064377,0.03527 0.1344919,0.01613 0.070115,-0.01913 0.1045013,-0.0819 l 0.4509874,-0.82322 0.168989,0.09258 -0.451869,0.824829 q -0.048052,0.08771 -0.1324286,0.136695 -0.083131,0.04862 -0.1809697,0.05151 -0.096594,0.0025 -0.1867211,-0.04684 L 9.0237602,20.573288 q -0.090127,-0.04938 -0.1407959,-0.132582 -0.050228,-0.08401 -0.05481,-0.180683 -0.00334,-0.09703 0.044715,-0.184748 z m 0.9116699,0.50128 0.995876,0.370398 -0.06717,0.180599 -0.406778,-0.151295 -0.38767,1.042317 -0.182319,-0.06781 0.387669,-1.042315 -0.406779,-0.151294 z m 1.372021,0.844456 q 0.01469,-0.100784 0.07834,-0.174963 0.0647,-0.07495 0.159006,-0.111284 0.09431,-0.03633 0.20054,-0.02086 l 0.302353,0.04405 q 0.106234,0.01549 0.186255,0.0772 0.08093,0.06186 0.120648,0.152027 0.03985,0.08925 0.02517,0.190041 l -0.08227,0.564756 q -0.01455,0.09988 -0.07834,0.174963 -0.06379,0.07509 -0.159007,0.111286 -0.09431,0.03633 -0.20054,0.02086 l -0.302355,-0.04404 q -0.106232,-0.01547 -0.186254,-0.07721 -0.08002,-0.06173 -0.120649,-0.152025 -0.03972,-0.09016 -0.02517,-0.190041 z m 0.109177,0.593574 q -0.01031,0.07082 0.03857,0.129869 0.04993,0.05827 0.129829,0.06991 l 0.302353,0.04405 q 0.08081,0.01178 0.144379,-0.02997 0.0637,-0.04265 0.07402,-0.113467 l 0.08254,-0.566574 q 0.01031,-0.07082 -0.0387,-0.12896 -0.04889,-0.05905 -0.129696,-0.07082 l -0.302353,-0.04405 q -0.0799,-0.01164 -0.14451,0.03087 -0.06357,0.04174 -0.07389,0.112557 z m 1.085986,-0.803786 0.873512,-1.9e-4 5.5e-5,0.192686 -0.679908,1.91e-4 3.81e-4,1.112076 -0.193604,5.3e-5 z m 0.30386,0.529343 0.5698,-1.59e-4 5.3e-5,0.192686 -0.5698,1.6e-4 z m 1.136476,-0.263979 q -0.0179,-0.08531 0.0096,-0.16421 0.0284,-0.07909 0.09157,-0.135479 0.06387,-0.05747 0.15098,-0.07576 l 0.660914,-0.13874 0.03959,0.188576 -0.660915,0.13874 q -0.05208,0.01094 -0.08207,0.05567 -0.02999,0.04473 -0.01905,0.09682 l 0.01847,0.088 q 0.01,0.04759 0.05487,0.0738 0.04488,0.02621 0.09696,0.01528 l 0.406786,-0.08539 q 0.088,-0.01847 0.168699,0.0087 0.08051,0.02623 0.137608,0.08831 0.05781,0.06099 0.07571,0.146303 l 0.02922,0.139187 q 0.0179,0.08531 -0.01031,0.165298 -0.0275,0.0789 -0.09048,0.136187 -0.06317,0.05639 -0.151171,0.07486 l -0.722873,0.151747 -0.03978,-0.189474 0.722875,-0.151747 q 0.05298,-0.01113 0.08245,-0.05387 0.03017,-0.04384 0.01962,-0.09412 l -0.02884,-0.137391 q -0.01056,-0.05029 -0.05581,-0.07829 -0.04436,-0.02819 -0.09734,-0.01706 l -0.406785,0.08539 q -0.0871,0.01828 -0.168323,-0.0068 -0.08051,-0.02623 -0.138127,-0.08632 -0.05672,-0.06028 -0.07425,-0.143797 z m 0.939477,-0.517001 0.998148,-0.364234 0.06605,0.181012 -0.407708,0.148775 0.381221,1.044694 -0.182736,0.06668 -0.381218,-1.044692 -0.407706,0.148776 z m 1.151479,-0.03099 q -0.04849,-0.08956 -0.04182,-0.187084 0.007,-0.09876 0.06092,-0.184274 0.05387,-0.08551 0.148275,-0.136623 l 0.26869,-0.145477 q 0.0944,-0.05111 0.195456,-0.04948 0.101859,0.0011 0.187604,0.04972 0.08531,0.04772 0.133802,0.137281 l 0.271729,0.50188 q 0.04806,0.08876 0.04182,0.187083 -0.0062,0.09833 -0.06092,0.184276 -0.05387,0.08551 -0.148273,0.136623 l -0.268692,0.145475 q -0.0944,0.05111 -0.195457,0.04948 -0.101049,-0.0017 -0.187603,-0.04972 -0.08575,-0.04852 -0.133802,-0.137281 z m 0.442418,0.410508 q 0.03407,0.06294 0.108566,0.08103 0.07486,0.01685 0.145867,-0.02159 l 0.268691,-0.145477 q 0.07181,-0.03888 0.09781,-0.110345 0.02556,-0.07227 -0.0085,-0.135208 L 17.11711,19.67878 q -0.03408,-0.06294 -0.108129,-0.08023 -0.07449,-0.01809 -0.146304,0.02078 l -0.26869,0.145475 q -0.07101,0.03845 -0.09737,0.111152 -0.026,0.07146 0.0081,0.134401 z m 0.590466,-0.97975 q -0.06167,-0.08106 -0.0715,-0.177339 -0.01039,-0.09701 0.0268,-0.18755 0.03719,-0.09054 0.118976,-0.152763 l 0.544049,-0.413872 0.116661,0.153357 -0.544049,0.41387 q -0.05915,0.045 -0.06967,0.117559 -0.01107,0.07183 0.03282,0.129521 l 0.347761,0.457147 q 0.04222,0.0555 0.114401,0.064 0.07162,0.0078 0.130775,-0.03723 l 0.544049,-0.413872 0.117217,0.154087 -0.54405,0.41387 q -0.08179,0.06222 -0.178417,0.07463 -0.09663,0.0124 -0.186235,-0.02204 -0.09016,-0.03517 -0.150159,-0.114037 z m 0.643451,-0.955973 0.134776,-0.13899 0.379421,0.367917 0.06707,-0.06917 -0.01917,-0.739434 0.185876,-0.191688 0.02362,0.902237 0.940541,-0.02227 -0.18843,0.194323 -0.830914,0.01993 -0.0396,0.04084 0.418285,0.405604 -0.134776,0.138989 z"
         id="text5"
         style="font-size:9.87777px;font-family:Anta;-inkscape-font-specification:Anta;text-align:center;text-anchor:middle;white-space:pre;fill:#f0f0f0;stroke-width:12.5109;stroke-linecap:round;stroke-linejoin:round"
         aria-label="OUT OF STOCK" />
      <path
         d="M 6.7580261,8.4062301 Q 6.6806335,8.3400219 6.6518817,8.2465974 6.6230291,8.1518792 6.6426398,8.0527359 6.6622505,7.9535923 6.7320375,7.8720163 L 6.9306621,7.6398389 q 0.069787,-0.081576 0.1646987,-0.1163006 0.095508,-0.035422 0.1929546,-0.020885 0.09675,0.013941 0.1741422,0.080148 l 0.433677,0.3710046 q 0.076695,0.065612 0.1061443,0.1596327 0.029449,0.094021 0.00924,0.1938615 -0.019611,0.099144 -0.089398,0.1807194 L 7.7234983,8.7201972 Q 7.6537113,8.8017732 7.5587999,8.8364978 7.4638882,8.8712225 7.365845,8.8573831 7.2683982,8.8428469 7.191703,8.7772347 Z m 0.5602295,0.2244855 q 0.054384,0.046525 0.13041,0.036699 0.075925,-0.01112 0.1284146,-0.072476 L 7.7757048,8.3627608 Q 7.8287908,8.3007075 7.8274243,8.2246733 7.8253602,8.1480426 7.7709766,8.101518 L 7.335905,7.7293205 q -0.054384,-0.046525 -0.1297127,-0.036102 -0.076026,0.00983 -0.1291119,0.07188 L 6.8784558,7.9972751 q -0.052489,0.061356 -0.051022,0.1386841 0.00137,0.076034 0.05575,0.1225588 z M 7.5457372,6.994644 7.6967429,6.8734839 8.2841687,7.6056114 q 0.044789,0.055822 0.117164,0.062453 0.072375,0.00663 0.1296284,-0.039306 L 8.780729,7.4283561 Q 8.837982,7.3824191 8.847193,7.3103265 8.856403,7.2382345 8.811615,7.1824123 L 8.2241897,6.4502849 8.3744797,6.3296989 8.963054,7.0632578 q 0.06259,0.078008 0.075482,0.1747153 0.013033,0.095418 -0.0218,0.1868921 -0.034692,0.090184 -0.1148468,0.1544967 l -0.249768,0.2004023 q -0.080155,0.064312 -0.1764296,0.07921 -0.096849,0.014182 -0.1878905,-0.018645 -0.0909,-0.034118 -0.1534899,-0.1121257 z M 8.7007173,6.1113173 9.6313314,5.5985565 9.7243192,5.7673208 9.3441978,5.9767645 9.8808699,6.9507751 9.7104982,7.0446485 9.1738263,6.0706379 8.7937051,6.2800816 Z m 1.9946587,-0.544805 q -0.02541,-0.098628 0.0046,-0.1916451 0.0307,-0.094135 0.103639,-0.1640931 0.07294,-0.069958 0.176897,-0.096743 l 0.295883,-0.076234 q 0.103959,-0.026785 0.20162,-7.8e-4 0.09855,0.025775 0.170029,0.093582 0.07125,0.066919 0.09666,0.165547 l 0.142394,0.5526697 q 0.02518,0.097739 -0.0046,0.1916449 -0.02981,0.093906 -0.103641,0.1640931 -0.07294,0.069958 -0.176895,0.096743 l -0.295883,0.076234 q -0.103959,0.026785 -0.201621,7.799e-4 -0.09766,-0.026003 -0.170029,-0.093582 -0.07148,-0.067808 -0.09666,-0.1655469 z m 0.330105,0.5052539 q 0.01786,0.069306 0.08577,0.1048701 0.06857,0.034447 0.146761,0.0143 l 0.295883,-0.076234 q 0.07908,-0.020375 0.121577,-0.083438 0.04227,-0.063952 0.02441,-0.1332576 L 11.557028,5.3435603 q -0.01786,-0.069306 -0.08554,-0.1039817 -0.06791,-0.035564 -0.146989,-0.015189 l -0.295883,0.076234 q -0.07819,0.020146 -0.12135,0.084326 -0.0425,0.063063 -0.02464,0.1323693 z m 1.1064,-1.2012586 0.870734,-0.069622 0.01535,0.1920734 -0.677746,0.054191 0.08864,1.1085385 -0.192987,0.01543 z m 0.344942,0.503538 0.567989,-0.045415 0.01535,0.1920735 -0.567989,0.045415 z m 1.566709,-0.2252548 q 0.0144,-0.08597 0.06876,-0.1494315 0.05526,-0.06331 0.134629,-0.092811 0.08042,-0.030254 0.168205,-0.01555 L 15.081163,5.0025629 15.04933,5.192602 14.383289,5.0810371 q -0.05248,-0.00879 -0.09671,0.021945 -0.04422,0.030736 -0.05302,0.083223 l -0.01486,0.088685 q -0.008,0.047962 0.02421,0.088717 0.03225,0.040755 0.08474,0.049546 l 0.409942,0.068667 q 0.08868,0.014856 0.153955,0.069514 0.06542,0.053754 0.09598,0.1323694 0.03162,0.077862 0.01722,0.1638319 l -0.0235,0.1402668 q -0.0144,0.08597 -0.06981,0.1501847 -0.05435,0.063462 -0.133876,0.093867 -0.07937,0.029501 -0.168052,0.014647 l -0.728484,-0.122024 0.03198,-0.1909438 0.728482,0.122024 q 0.05339,0.00894 0.09641,-0.020135 0.04407,-0.029831 0.05256,-0.080508 l 0.02319,-0.1384569 q 0.0085,-0.050677 -0.02346,-0.093242 -0.03104,-0.042413 -0.08443,-0.051356 L 14.295826,5.603191 Q 14.208046,5.588487 14.141568,5.535487 14.076148,5.481733 14.044378,5.404776 14.013518,5.327971 14.027618,5.2438104 Z m 1.460151,-0.043488 1.003111,0.3503355 -0.06353,0.1819114 -0.409734,-0.1430991 -0.366673,1.0498881 -0.183643,-0.064137 0.366671,-1.0498881 -0.409734,-0.143099 z m 1.183995,0.8317428 q 0.04973,-0.088886 0.135685,-0.1354208 0.08721,-0.046888 0.188275,-0.047125 0.101063,-2.283e-4 0.194753,0.052175 l 0.266658,0.1491727 q 0.09369,0.052412 0.146373,0.1386582 0.05348,0.086694 0.05836,0.1850985 0.0053,0.097603 -0.0444,0.186489 l -0.278635,0.4980792 q -0.04928,0.088085 -0.135686,0.1354206 -0.08641,0.047336 -0.188273,0.047125 -0.101065,2.283e-4 -0.194754,-0.052175 L 16.569385,6.94537 Q 16.475695,6.892958 16.42301,6.8067117 16.37033,6.7204657 16.36465,6.6216132 q -0.0049,-0.098404 0.0444,-0.1864888 z m -0.110119,0.5934006 q -0.03494,0.06246 -0.01039,0.1350771 0.02581,0.072264 0.09628,0.1116854 l 0.266658,0.1491725 q 0.07127,0.039869 0.145553,0.023601 0.07473,-0.01707 0.109675,-0.079529 l 0.279532,-0.4996806 q 0.03494,-0.06246 0.0099,-0.1342764 -0.02456,-0.072617 -0.09583,-0.1124859 l -0.266626,-0.149174 q -0.07047,-0.039421 -0.146001,-0.0228 -0.07429,0.016269 -0.109229,0.078729 z m 1.395211,0.1707044 q 0.06509,-0.078335 0.15668,-0.109599 0.09218,-0.031969 0.18877,-0.016131 0.09659,0.01584 0.175634,0.081515 l 0.525765,0.4368636 -0.123143,0.1482024 -0.525765,-0.4368637 q -0.05717,-0.047498 -0.130229,-0.041402 -0.07248,0.00539 -0.118803,0.061143 L 17.754597,7.266663 q -0.04457,0.053635 -0.03659,0.1258746 0.0086,0.071534 0.06573,0.1190314 L 18.309496,7.9484332 18.185765,8.0973411 17.66,7.6604775 q -0.07904,-0.065676 -0.112889,-0.157028 -0.03385,-0.091352 -0.02047,-0.1864129 0.01396,-0.095767 0.07729,-0.1719854 z m 1.375186,0.7219876 0.124509,0.1482574 -0.404721,0.3398896 0.06196,0.073778 0.73753,0.0564 0.171714,0.2044688 -0.899935,-0.068587 -0.07385,0.9379028 -0.174073,-0.2072792 0.06498,-0.828611 -0.03659,-0.043564 -0.446176,0.3747047 -0.124509,-0.1482575 z"
         id="text4"
         style="font-size:9.87778px;font-family:Anta;-inkscape-font-specification:Anta;text-align:center;text-anchor:middle;white-space:pre;fill:#f0f0f0;stroke-width:12.5109;stroke-linecap:round;stroke-linejoin:round"
         aria-label="OUT OF STOCK" />
    </g>
  </g>
</svg>
