<!DOCTYPE svg PUBLIC "-//W3C//DTD SVG 1.1//EN" "http://www.w3.org/Graphics/SVG/1.1/DTD/svg11.dtd">
<!-- Uploaded to: SVG Repo, www.svgrepo.com, Transformed by: SVG Repo Mixer Tools -->
<svg fill="#2c5715" width="800px" height="800px" viewBox="-2 -2 24 24" xmlns="http://www.w3.org/2000/svg" preserveAspectRatio="xMinYMin" class="jam jam-envelope-open-f">
<g id="SVGRepo_bgCarrier" stroke-width="0"/>
<g id="SVGRepo_tracerCarrier" stroke-linecap="round" stroke-linejoin="round"/>
<g id="SVGRepo_iconCarrier">
<path d="M19.25 5.52l-8.574 7.6a1 1 0 0 1-1.331 0L.703 5.56c.064-.055.131-.105.203-.152L8.359.536a3 3 0 0 1 3.282 0l7.453 4.872c.054.035.106.073.156.113zM20 7.69V18a2 2 0 0 1-2 2H2a2 2 0 0 1-2-2V7.698l8.014 6.916a3 3 0 0 0 3.992 0L20 7.69z"/>
</g>
</svg>