<!DOCTYPE svg PUBLIC "-//W3C//DTD SVG 1.1//EN" "http://www.w3.org/Graphics/SVG/1.1/DTD/svg11.dtd">
<!-- Uploaded to: SVG Repo, www.svgrepo.com, Transformed by: SVG Repo Mixer Tools -->
<svg fill="#2c5715" width="800px" height="800px" viewBox="-2 -5 24 24" xmlns="http://www.w3.org/2000/svg" preserveAspectRatio="xMinYMin" class="jam jam-envelope-f">
<g id="SVGRepo_bgCarrier" stroke-width="0"/>
<g id="SVGRepo_tracerCarrier" stroke-linecap="round" stroke-linejoin="round"/>
<g id="SVGRepo_iconCarrier">
<path d="M18.572.083L10.676 7.12a1 1 0 0 1-1.331 0L1.416.087A2 2 0 0 1 2 0h16a2 2 0 0 1 .572.083zm1.356 1.385c.047.17.072.348.072.532v10a2 2 0 0 1-2 2H2a2 2 0 0 1-2-2V2c0-.185.025-.364.072-.534l7.942 7.148a3 3 0 0 0 3.992 0l7.922-7.146z"/>
</g>
</svg>